<svg xmlns="http://www.w3.org/2000/svg" viewBox="0 0 720 360" role="img" aria-label="Tamayaz App: the product behind every claim">
  <title>Tamayaz App</title>
  <defs>
    <linearGradient id="bg-app" x1="0%" y1="0%" x2="100%" y2="100%">
      <stop offset="0%" stop-color="#2a2526"/>
      <stop offset="100%" stop-color="#161314"/>
    </linearGradient>
  </defs>
  <rect width="720" height="360" rx="20" fill="url(#bg-app)"/>
  <rect width="720" height="6" fill="#44D62C"/>
  <g fill="#44D62C" opacity="0.10" font-family="ui-monospace, SFMono-Regular, Menlo, monospace" font-size="14">
    <text x="556" y="46">+</text><text x="586" y="46">+</text><text x="616" y="46">+</text><text x="646" y="46">+</text><text x="676" y="46">+</text>
    <text x="556" y="76">+</text><text x="586" y="76">+</text><text x="616" y="76">+</text><text x="646" y="76">+</text><text x="676" y="76">+</text>
    <text x="556" y="106">+</text><text x="586" y="106">+</text><text x="616" y="106">+</text><text x="646" y="106">+</text><text x="676" y="106">+</text>
  </g>
  <text x="40" y="78" font-family="Montserrat, ui-sans-serif, Helvetica, Arial, sans-serif" font-weight="700" font-size="13" letter-spacing="3" fill="#44D62C">PRODUCT</text>
  <text x="40" y="140" font-family="Montserrat, ui-sans-serif, Helvetica, Arial, sans-serif" font-weight="800" font-size="46" fill="#FFFFFF" letter-spacing="-1">Tamayaz App</text>
  <g font-family="Montserrat, ui-sans-serif, Helvetica, Arial, sans-serif" font-weight="400" font-size="17" fill="#C6C9C6">
    <text x="40" y="190">The product behind every claim. Operations,</text>
    <text x="40" y="214">automation, and the workflows your business</text>
    <text x="40" y="238">actually runs on.</text>
  </g>
  <g transform="translate(40, 274)">
    <rect width="210" height="50" rx="25" fill="#44D62C"/>
    <text x="105" y="32" text-anchor="middle" font-family="Montserrat, ui-sans-serif, Helvetica, Arial, sans-serif" font-weight="700" font-size="14" fill="#231F20" letter-spacing="1">VISIT THE APP  →</text>
  </g>
  <g transform="translate(520, 178)" opacity="0.28">
    <rect x="0" y="0" width="160" height="120" rx="8" stroke="#C6C9C6" stroke-width="2" fill="none"/>
    <line x1="0" y1="24" x2="160" y2="24" stroke="#C6C9C6" stroke-width="2"/>
    <circle cx="14" cy="12" r="3" fill="#44D62C"/>
    <circle cx="28" cy="12" r="3" fill="#C6C9C6"/>
    <circle cx="42" cy="12" r="3" fill="#C6C9C6"/>
    <rect x="14" y="40" width="64" height="8" rx="2" fill="#44D62C"/>
    <rect x="14" y="56" width="120" height="5" rx="2" fill="#C6C9C6"/>
    <rect x="14" y="66" width="96" height="5" rx="2" fill="#C6C9C6"/>
    <rect x="14" y="76" width="108" height="5" rx="2" fill="#C6C9C6"/>
    <rect x="14" y="90" width="44" height="20" rx="4" fill="#44D62C"/>
    <rect x="64" y="90" width="44" height="20" rx="4" stroke="#C6C9C6" stroke-width="1.5" fill="none"/>
  </g>
</svg>
