<svg xmlns="http://www.w3.org/2000/svg" viewBox="0 0 720 360" role="img" aria-label="Yara: your AI operator on WhatsApp and Telegram">
  <title>Yara</title>
  <defs>
    <linearGradient id="bg-yara" x1="0%" y1="0%" x2="100%" y2="100%">
      <stop offset="0%" stop-color="#2a2526"/>
      <stop offset="100%" stop-color="#161314"/>
    </linearGradient>
  </defs>
  <rect width="720" height="360" rx="20" fill="url(#bg-yara)"/>
  <rect width="720" height="6" fill="#44D62C"/>
  <g fill="#44D62C" opacity="0.10" font-family="ui-monospace, SFMono-Regular, Menlo, monospace" font-size="14">
    <text x="556" y="46">+</text><text x="586" y="46">+</text><text x="616" y="46">+</text><text x="646" y="46">+</text><text x="676" y="46">+</text>
    <text x="556" y="76">+</text><text x="586" y="76">+</text><text x="616" y="76">+</text><text x="646" y="76">+</text><text x="676" y="76">+</text>
    <text x="556" y="106">+</text><text x="586" y="106">+</text><text x="616" y="106">+</text><text x="646" y="106">+</text><text x="676" y="106">+</text>
  </g>
  <text x="40" y="78" font-family="Montserrat, ui-sans-serif, Helvetica, Arial, sans-serif" font-weight="700" font-size="13" letter-spacing="3" fill="#44D62C">AI OPERATOR</text>
  <text x="40" y="140" font-family="Montserrat, ui-sans-serif, Helvetica, Arial, sans-serif" font-weight="800" font-size="46" fill="#FFFFFF" letter-spacing="-1">Yara</text>
  <g font-family="Montserrat, ui-sans-serif, Helvetica, Arial, sans-serif" font-weight="400" font-size="17" fill="#C6C9C6">
    <text x="40" y="190">Your AI operator on WhatsApp and Telegram.</text>
    <text x="40" y="214">Yara picks up work the way your team</text>
    <text x="40" y="238">already talks.</text>
  </g>
  <g transform="translate(40, 274)">
    <rect width="170" height="50" rx="25" fill="#44D62C"/>
    <text x="85" y="32" text-anchor="middle" font-family="Montserrat, ui-sans-serif, Helvetica, Arial, sans-serif" font-weight="700" font-size="14" fill="#231F20" letter-spacing="1">MEET YARA  →</text>
  </g>
  <g transform="translate(508, 168)" opacity="0.32">
    <rect x="0" y="0" width="120" height="48" rx="14" fill="#C6C9C6"/>
    <path d="M 16 48 L 8 64 L 32 48 Z" fill="#C6C9C6"/>
    <rect x="60" y="76" width="140" height="48" rx="14" fill="#44D62C"/>
    <path d="M 184 124 L 192 140 L 168 124 Z" fill="#44D62C"/>
  </g>
</svg>
