<svg xmlns="http://www.w3.org/2000/svg" viewBox="0 0 1280 100" role="img" aria-label="The team">
  <title>The team</title>
  <defs>
    <linearGradient id="hdr-the-team" x1="0%" y1="0%" x2="100%" y2="100%">
      <stop offset="0%" stop-color="#2a2526"/>
      <stop offset="100%" stop-color="#161314"/>
    </linearGradient>
  </defs>
  <rect width="1280" height="100" rx="14" fill="url(#hdr-the-team)"/>
  <rect x="0" y="0" width="6" height="100" fill="#44D62C"/>
  <g fill="#44D62C" opacity="0.10" font-family="ui-monospace, SFMono-Regular, Menlo, monospace" font-size="13">
    <text x="1140" y="24">+</text><text x="1160" y="24">+</text><text x="1180" y="24">+</text><text x="1200" y="24">+</text><text x="1220" y="24">+</text><text x="1240" y="24">+</text>
    <text x="1140" y="42">+</text><text x="1160" y="42">+</text><text x="1180" y="42">+</text><text x="1200" y="42">+</text><text x="1220" y="42">+</text><text x="1240" y="42">+</text>
    <text x="1140" y="60">+</text><text x="1160" y="60">+</text><text x="1180" y="60">+</text><text x="1200" y="60">+</text><text x="1220" y="60">+</text><text x="1240" y="60">+</text>
    <text x="1140" y="78">+</text><text x="1160" y="78">+</text><text x="1180" y="78">+</text><text x="1200" y="78">+</text><text x="1220" y="78">+</text><text x="1240" y="78">+</text>
  </g>
  <text x="44" y="68" font-family="Montserrat, ui-sans-serif, Helvetica, Arial, sans-serif" font-weight="800" font-size="44" fill="#44D62C" letter-spacing="-1">03</text>
  <line x1="118" y1="50" x2="148" y2="50" stroke="#44D62C" stroke-width="3" stroke-linecap="round"/>
  <text x="170" y="64" font-family="Montserrat, ui-sans-serif, Helvetica, Arial, sans-serif" font-weight="800" font-size="36" fill="#FFFFFF" letter-spacing="-0.5">The team</text>
</svg>
